<?xml version="1.0" encoding="UTF-8"?>
<svg id="b" data-name="Warstwa 2" xmlns="http://www.w3.org/2000/svg" viewBox="0 0 361.43 97.18">
  <defs>
    <style>
      .d, .e {
        stroke-width: 0px;
      }

      .e {
        fill: #009fe3;
      }
    </style>
  </defs>
  <g id="c" data-name="Warstwa 1">
    <g>
      <g>
        <g>
          <path class="e" d="m38.04,16.94c0-.74.08-1.46.21-2.16-1.33.82-2.63,1.72-3.93,2.57-4,2.63-8.28,3.23-12.88,2.28-3-.62-5.39-2.43-7.79-4.14-4.1-2.92-8.64-4.35-13.65-4.34v7.42c3.46-.07,6.56.98,9.36,2.98,1.01.72,2.04,1.39,3.07,2.07,6.56,4.33,13.65,5,20.9,2.42,2.22-.79,4.26-2.12,6.29-3.45-1-1.66-1.58-3.59-1.58-5.67Z"/>
          <path class="e" d="m119.02,18.14c-1.64-1.03-3.25-2.1-4.87-3.16-6.57-4.31-13.66-4.98-20.91-2.38-2.96,1.06-5.61,3.07-8.32,4.77-5.34,3.36-10.81,3.67-16.41.84-1.75-.89-3.33-2.12-4.98-3.2-1.42-.93-2.86-1.69-4.32-2.28.54,1.3.84,2.72.84,4.22s-.29,2.86-.81,4.14c1.33.8,2.6,1.74,3.9,2.6,6.49,4.26,13.51,4.93,20.68,2.43,2.97-1.03,5.64-3.01,8.33-4.73,5.49-3.5,11.11-3.85,16.83-.81,2.24,1.19,4.26,2.81,6.46,4.11,3.41,2.01,7.14,2.8,11.08,2.77v-7.37c-2.71-.07-5.25-.51-7.52-1.93Z"/>
        </g>
        <circle class="e" cx="49.05" cy="16.94" r="6.89"/>
        <g>
          <path class="e" d="m70.37,45.55c0-1.55.44-2.99,1.19-4.22-1.02-.31-2.03-.73-3.06-1.25-1.79-.92-3.4-2.16-5.09-3.27-6.45-4.23-13.44-4.85-20.56-2.4-3.01,1.03-5.71,3.04-8.45,4.76-5.5,3.46-11.11,3.81-16.84.76-1.77-.94-3.38-2.2-5.07-3.29-3.8-2.46-7.94-3.72-12.5-3.46v7.42c2.31-.22,4.55.14,6.56,1.26,2.08,1.16,4.06,2.51,6.06,3.8,6.43,4.17,13.31,4.61,20.49,2.45,3.25-.98,5.84-3.17,8.64-4.96,5.3-3.39,10.82-3.66,16.4-.79,1.78.92,3.4,2.17,5.08,3.27,2.55,1.67,5.18,2.73,7.86,3.29-.47-1.03-.73-2.16-.73-3.36Z"/>
          <path class="e" d="m125.57,41.88c-2.36-.05-4.57-.63-6.57-1.87-1.71-1.06-3.37-2.21-5.07-3.31-6.39-4.13-13.25-4.56-20.38-2.42-3.29.99-5.9,3.22-8.75,5.02-.22.14-.44.26-.65.39,1.54,1.48,2.49,3.55,2.49,5.85,0,.47-.05.94-.13,1.39,2.04-1.09,3.9-2.52,5.85-3.77,5.34-3.43,10.89-3.7,16.51-.79,1.85.96,3.53,2.27,5.28,3.42,3.75,2.45,7.86,3.62,12.41,3.48v-7.26c-.36-.05-.68-.12-1-.13Z"/>
        </g>
        <circle class="e" cx="78.51" cy="45.55" r="4.93"/>
        <g>
          <path class="e" d="m19.85,63.09c0-.05,0-.1,0-.15-2.28-.83-4.24-2.28-6.2-3.68-4.1-2.92-8.64-4.36-13.66-4.33v7.42c3.46-.08,6.56.98,9.36,2.98,1.01.72,2.04,1.39,3.07,2.07,3.64,2.41,7.45,3.68,11.36,3.9-2.4-1.93-3.95-4.89-3.95-8.21Z"/>
          <path class="e" d="m118.91,61.85c-1.64-1.03-3.23-2.13-4.85-3.18-6.37-4.16-13.22-4.67-20.37-2.55-3.3.98-5.94,3.16-8.77,4.99-5.29,3.42-10.8,3.7-16.4.85-1.75-.89-3.33-2.12-4.98-3.21-6.52-4.3-13.58-4.98-20.79-2.46-1.13.39-2.21.92-3.27,1.52.9,1.55,1.42,3.34,1.42,5.26,0,.93-.13,1.82-.36,2.68.4-.26.81-.53,1.22-.78,5.31-3.31,10.75-3.63,16.3-.81,1.79.91,3.4,2.16,5.09,3.27,6.49,4.26,13.51,4.93,20.68,2.43,2.97-1.03,5.64-3.01,8.33-4.73,5.49-3.49,11.1-3.86,16.83-.81,2.28,1.22,4.33,2.85,6.57,4.16,3.37,1.98,7.07,2.73,10.97,2.72v-7.38c-2.76-.05-5.33-.54-7.63-1.99Z"/>
        </g>
        <circle class="e" cx="30.37" cy="63.09" r="6.24"/>
        <path class="e" d="m125.56,85.65c-2.9-.02-5.47-1.05-7.85-2.62-1.27-.84-2.52-1.72-3.79-2.55-6.35-4.12-13.17-4.54-20.26-2.47-3.3.96-5.92,3.19-8.76,5-5.3,3.38-10.81,3.7-16.4.83-1.78-.92-3.4-2.16-5.09-3.27-6.41-4.22-13.3-4.65-20.48-2.53-3.29.97-5.91,3.21-8.75,5.02-5.26,3.34-10.74,3.64-16.29.8-1.79-.91-3.41-2.14-5.09-3.26-2.25-1.5-4.64-2.68-7.31-3.17-1.81-.33-3.66-.49-5.49-.73v7.42c.36.06.72.16,1.09.17,2.36.06,4.57.65,6.57,1.89,1.64,1.02,3.24,2.11,4.86,3.17,6.45,4.24,13.37,4.69,20.59,2.52,3.25-.98,5.84-3.17,8.64-4.96,5.3-3.38,10.81-3.68,16.4-.79,1.78.92,3.4,2.17,5.09,3.27,6.37,4.18,13.23,4.62,20.37,2.54.49-.14.95-.32,1.41-.51.03-4.47,3.66-8.09,8.13-8.09,1.61,0,3.11.48,4.38,1.28,3.72-.96,7.52-.45,11.35,1.53,1.85.96,3.53,2.27,5.29,3.42,3.76,2.45,7.87,3.6,12.41,3.48v-7.28c-.37-.05-.69-.12-1-.12Z"/>
        <circle class="e" cx="93.15" cy="91.47" r="4.99"/>
        <path class="e" d="m21.18,1.59c1.63,0,2.96,1.32,2.96,2.96s-1.32,2.96-2.96,2.96-2.96-1.32-2.96-2.96,1.32-2.96,2.96-2.96m0-1.59c-2.51,0-4.55,2.04-4.55,4.55s2.04,4.55,4.55,4.55,4.55-2.04,4.55-4.55S23.69,0,21.18,0h0Z"/>
        <path class="e" d="m49.05,67.84c.82,0,1.48.66,1.48,1.48s-.66,1.48-1.48,1.48-1.48-.66-1.48-1.48.66-1.48,1.48-1.48m0-.8c-1.25,0-2.27,1.02-2.27,2.27s1.02,2.27,2.27,2.27,2.27-1.02,2.27-2.27-1.02-2.27-2.27-2.27h0Z"/>
        <path class="e" d="m105.06,46.42c.82,0,1.48.66,1.48,1.48s-.66,1.48-1.48,1.48-1.48-.66-1.48-1.48.66-1.48,1.48-1.48m0-.8c-1.25,0-2.27,1.02-2.27,2.27s1.02,2.27,2.27,2.27,2.27-1.02,2.27-2.27-1.02-2.27-2.27-2.27h0Z"/>
      </g>
      <g>
        <polygon class="d" points="178.54 41.07 160.54 41.07 160.54 11.61 147.09 11.61 147.09 51.5 178.54 51.5 178.54 41.07"/>
        <rect class="d" x="182.4" y="11.61" width="13.45" height="39.89"/>
        <polygon class="d" points="212.94 38.74 229.58 38.74 229.58 28.59 212.94 28.59 212.94 21.76 231.92 21.76 231.92 11.61 199.49 11.61 199.49 51.5 212.94 51.5 212.94 38.74"/>
        <polygon class="d" points="268.51 41.36 248.56 41.36 248.56 36.12 265.43 36.12 265.43 26.43 248.56 26.43 248.56 21.76 267.77 21.76 267.77 11.61 235.34 11.61 235.34 51.5 268.51 51.5 268.51 41.36"/>
        <polygon class="d" points="202.73 57.29 195.39 80.26 188.43 57.29 176.06 57.29 168.7 79.95 161.76 57.29 147.91 57.29 160.68 97.18 175.09 97.18 181.88 75.85 188.31 97.18 202.73 97.18 215.5 57.29 202.73 57.29"/>
        <path class="d" d="m225.29,57.29l-17.44,39.89h13.68l2.67-6.95h15.17l2.67,6.95h13.91l-17.44-39.89h-13.22Zm2.63,23.25l3.86-10.05,3.86,10.05h-7.72Z"/>
        <polygon class="d" points="248.25 67.71 259.94 67.71 259.94 97.18 273.38 97.18 273.38 67.71 285.07 67.71 285.07 57.29 248.25 57.29 248.25 67.71"/>
        <polygon class="d" points="300.91 81.79 317.78 81.79 317.78 72.1 300.91 72.1 300.91 67.43 320.12 67.43 320.12 57.29 287.69 57.29 287.69 97.18 320.86 97.18 320.86 87.03 300.91 87.03 300.91 81.79"/>
        <path class="d" d="m347.07,97.18h14.36l-8.37-12.27c2.24-1.14,4-2.69,5.29-4.63,1.48-2.22,2.22-4.87,2.22-7.95s-.74-5.75-2.22-8.01c-1.48-2.26-3.58-4-6.3-5.21-2.72-1.22-5.94-1.82-9.66-1.82h-19.2v39.89h13.45v-10.03h3.66l6.77,10.03Zm-1.4-28.26c.89.84,1.34,1.98,1.34,3.42s-.45,2.58-1.34,3.42c-.89.84-2.27,1.25-4.13,1.25h-4.9v-9.35h4.9c1.86,0,3.24.42,4.13,1.25Z"/>
      </g>
    </g>
  </g>
</svg>